# xmcd
#
# Track frame offsets:
#	150
#	15840
#	31406
#	48578
#	69713
#	88071
#	100356
#	114415
#	128510
#	140313
#
# Disc length: 2054 seconds
# Revision: 3
# Processed by: cddbd v1.5.2PL0 Copyright (c) Steve Scherf et al.
# Submitted via: dBpowerAMP V12.0
#
DISCID=7d08040a
DTITLE=Kenny Rogers - Love Songs
DYEAR=2003
DGENRE=Contemporary
TTITLE0=Through The Years
TTITLE1=Unchained Melody
TTITLE2=Lady
TTITLE3=Always and Forever
TTITLE4=My Funny Valentine
TTITLE5=Somewhere My Love
TTITLE6=You Are So Beautiful
TTITLE7=You Light Up My Life
TTITLE8=Love Is A Many Splendored Thing
TTITLE9=Love Me Tender
EXTD=
EXTT0=
EXTT1=
EXTT2=
EXTT3=
EXTT4=
EXTT5=
EXTT6=
EXTT7=
EXTT8=
EXTT9=
PLAYORDER=
